<?xml version="1.0" standalone="no"?>
<!DOCTYPE svg PUBLIC "-//W3C//DTD SVG 20010904//EN"
 "http://www.w3.org/TR/2001/REC-SVG-20010904/DTD/svg10.dtd">
<svg version="1.0" xmlns="http://www.w3.org/2000/svg"
 width="512.000000pt" height="512.000000pt" viewBox="0 0 512.000000 512.000000"
 preserveAspectRatio="xMidYMid meet">
<metadata>
Created by potrace 1.16, written by Peter Selinger 2001-2019
</metadata>
<g transform="translate(0.000000,512.000000) scale(0.100000,-0.100000)"
fill="#000000" stroke="none">
<path d="M1400 4895 c-305 -61 -493 -294 -541 -671 -22 -180 -2 -467 52 -707
103 -470 359 -1056 649 -1487 20 -30 56 -107 80 -170 92 -247 232 -537 387
-805 74 -127 93 -172 93 -214 -1 -70 -91 -187 -204 -263 -65 -45 -218 -120
-284 -139 -31 -9 -41 -17 -38 -28 2 -9 7 -43 11 -76 3 -33 9 -75 12 -93 l5
-32 938 0 938 0 5 32 c3 18 9 60 12 93 4 33 9 67 11 76 3 11 -7 19 -38 28 -66
19 -219 94 -284 139 -113 76 -203 193 -204 263 0 42 19 87 93 214 154 265 290
547 388 805 29 77 69 155 120 235 323 506 555 1081 639 1585 27 161 37 416 21
544 -59 463 -329 707 -759 683 -428 -23 -558 -350 -348 -872 l34 -85 -628 0
-628 0 34 85 c112 279 128 491 49 652 -56 114 -145 177 -292 208 -83 18 -235
18 -323 0z m339 -242 c83 -42 96 -71 95 -208 -1 -98 -5 -121 -36 -216 -35
-102 -105 -252 -147 -314 -19 -27 -21 -45 -21 -188 0 -114 -4 -167 -14 -192
-19 -44 -81 -88 -157 -111 -65 -20 -104 -50 -111 -88 -6 -32 9 -257 27 -395 8
-63 13 -116 11 -118 -11 -12 -148 352 -201 532 -190 652 -135 1138 145 1280
123 62 304 70 409 18z m1932 23 c137 -29 237 -106 296 -227 155 -318 83 -882
-197 -1552 -18 -43 -34 -76 -36 -74 -2 2 3 55 11 118 18 138 33 363 27 395 -7
37 -47 69 -109 88 -75 23 -134 63 -155 106 -15 29 -18 63 -18 195 0 145 -2
163 -21 190 -42 63 -112 211 -146 313 -28 85 -36 127 -40 207 -4 90 -2 104 19
145 48 93 198 132 369 96z m-399 -1068 c4 -117 6 -126 38 -186 39 -73 94 -125
179 -171 l60 -32 -4 -42 c-3 -23 -9 -89 -15 -147 -63 -615 -270 -1231 -616
-1831 -99 -172 -121 -220 -133 -297 -21 -132 30 -261 156 -393 l76 -79 -453 0
-453 0 74 77 c127 133 179 264 157 398 -12 76 -29 115 -133 296 -346 601 -553
1218 -615 1829 -6 58 -12 124 -15 147 l-4 42 60 32 c85 46 140 98 179 171 32
60 34 69 38 186 l4 122 708 0 708 0 4 -122z"/>
</g>
</svg>
