<?xml version="1.0" standalone="no"?>
<!DOCTYPE svg PUBLIC "-//W3C//DTD SVG 20010904//EN"
 "http://www.w3.org/TR/2001/REC-SVG-20010904/DTD/svg10.dtd">
<svg version="1.0" xmlns="http://www.w3.org/2000/svg"
 width="512.000000pt" height="512.000000pt" viewBox="0 0 512.000000 512.000000"
 preserveAspectRatio="xMidYMid meet">
<metadata>
Created by potrace 1.16, written by Peter Selinger 2001-2019
</metadata>
<g transform="translate(0.000000,512.000000) scale(0.100000,-0.100000)"
fill="#000000" stroke="none">
<path d="M2506 4635 c-32 -11 -257 -231 -1099 -1072 -582 -582 -1065 -1070
-1073 -1085 -8 -15 -14 -51 -14 -80 0 -63 24 -109 72 -138 31 -19 51 -20 301
-20 l267 0 0 -844 c0 -800 1 -847 19 -905 46 -147 172 -272 320 -315 46 -13
118 -16 445 -16 373 0 393 1 424 20 18 11 41 34 52 52 19 32 20 52 20 533 0
275 5 518 10 539 11 49 37 85 81 111 31 18 52 20 229 20 177 0 198 -2 229 -20
44 -26 70 -62 81 -111 5 -21 10 -264 10 -539 0 -481 1 -501 20 -533 11 -18 34
-41 52 -52 31 -19 51 -20 425 -20 356 0 397 2 452 19 147 46 272 172 315 320
14 48 16 158 16 898 l0 843 268 0 c249 0 269 1 300 20 48 29 72 75 72 138 0
29 -6 65 -14 80 -8 15 -493 505 -1078 1089 -921 919 -1068 1063 -1103 1072
-49 13 -51 13 -99 -4z"/>
</g>
</svg>
