<?xml version="1.0" standalone="no"?>
<!DOCTYPE svg PUBLIC "-//W3C//DTD SVG 20010904//EN"
 "http://www.w3.org/TR/2001/REC-SVG-20010904/DTD/svg10.dtd">
<svg version="1.0" xmlns="http://www.w3.org/2000/svg"
 width="512.000000pt" height="512.000000pt" viewBox="0 0 512.000000 512.000000"
 preserveAspectRatio="xMidYMid meet">

<g transform="translate(0.000000,512.000000) scale(0.100000,-0.100000)"
fill="#000000" stroke="none">
<path d="M119 4355 c-15 -8 -30 -22 -33 -31 -4 -9 -6 -317 -6 -683 0 -666 0
-666 21 -683 33 -28 111 -24 146 6 l28 24 3 574 c2 523 4 574 19 586 13 9 483
12 2269 12 2034 0 2254 -2 2268 -16 14 -14 16 -169 16 -1560 0 -1531 0 -1544
-20 -1564 -20 -20 -33 -20 -1300 -20 l-1281 0 -24 -25 c-37 -37 -35 -106 4
-146 l29 -29 1362 0 c1466 0 1402 -2 1430 49 14 27 14 3445 0 3472 -28 52 125
49 -2487 49 -2077 -1 -2422 -3 -2444 -15z"/>
<path d="M118 2675 c-35 -20 -48 -44 -48 -90 0 -81 34 -100 190 -108 565 -30
1086 -370 1327 -867 102 -210 172 -498 173 -708 0 -53 4 -67 25 -87 37 -37
106 -35 146 4 27 28 29 34 29 113 -1 473 -195 919 -547 1258 -232 224 -490
366 -802 444 -125 32 -210 44 -351 51 -93 5 -120 3 -142 -10z"/>
<path d="M93 2171 c-13 -12 -26 -33 -29 -47 -9 -33 12 -101 34 -113 9 -5 59
-14 110 -20 191 -23 339 -65 477 -134 352 -175 533 -475 580 -959 8 -80 25
-99 94 -106 46 -4 53 -2 81 26 29 30 30 33 30 125 0 312 -138 627 -384 873
-111 110 -203 178 -341 246 -165 83 -303 117 -500 125 -123 5 -131 4 -152 -16z"/>
<path d="M114 1684 c-59 -29 -73 -108 -27 -150 29 -26 40 -30 123 -38 87 -9
168 -33 255 -75 183 -90 281 -254 310 -518 6 -54 11 -67 38 -89 26 -22 38 -25
76 -21 57 6 91 42 91 95 0 62 -28 224 -49 285 -100 289 -316 454 -671 512
-115 18 -108 18 -146 -1z"/>
</g>
</svg>
