<?xml version="1.0" standalone="no"?>
<!DOCTYPE svg PUBLIC "-//W3C//DTD SVG 20010904//EN"
 "http://www.w3.org/TR/2001/REC-SVG-20010904/DTD/svg10.dtd">
<svg version="1.0" xmlns="http://www.w3.org/2000/svg"
 width="512.000000pt" height="512.000000pt" viewBox="0 0 512.000000 512.000000"
 preserveAspectRatio="xMidYMid meet">

<g transform="translate(0.000000,512.000000) scale(0.100000,-0.100000)"
fill="#000000" stroke="none">
<path d="M402 4944 c-29 -7 -62 -19 -74 -25 -42 -23 -110 -95 -136 -144 l-27
-50 0 -2165 0 -2165 27 -52 c35 -66 85 -116 151 -151 l52 -27 1862 -3 c1852
-2 1863 -2 1923 18 58 19 64 20 113 5 191 -58 444 -10 551 105 55 59 72 92 97
187 18 73 19 119 19 1115 l0 1039 -25 24 -24 25 -375 0 -376 0 -2 1023 -3
1022 -27 52 c-37 70 -89 120 -157 152 l-56 26 -1730 2 c-1476 2 -1738 0 -1783
-13z m3524 -170 c15 -11 37 -33 48 -48 l21 -27 5 -2097 c5 -2011 6 -2099 24
-2152 10 -30 27 -72 37 -93 l19 -37 -1829 2 -1830 3 -27 21 c-15 11 -37 33
-48 48 l-21 27 -3 2117 c-2 1427 0 2129 7 2153 6 19 22 45 35 58 56 53 -30 50
1818 48 1716 -2 1717 -2 1744 -23z m874 -3226 c0 -1050 0 -1047 -53 -1127 -18
-26 -45 -48 -84 -68 -54 -26 -66 -28 -183 -28 -117 0 -129 2 -183 28 -39 20
-66 42 -84 68 -53 80 -53 77 -53 1127 l0 972 320 0 320 0 0 -972z"/>
<path d="M1200 4480 l0 -80 1200 0 1200 0 0 80 0 80 -1200 0 -1200 0 0 -80z"/>
<path d="M880 4160 l0 -80 1360 0 1360 0 0 80 0 80 -1360 0 -1360 0 0 -80z"/>
<path d="M880 3840 l0 -80 1360 0 1360 0 0 80 0 80 -1360 0 -1360 0 0 -80z"/>
<path d="M2105 3439 c-152 -20 -333 -89 -461 -177 -203 -138 -356 -355 -421
-598 -24 -88 -27 -117 -27 -264 -1 -150 2 -174 27 -263 164 -592 771 -923
1342 -731 200 67 379 196 507 364 65 85 151 263 180 370 30 114 33 397 5 500
-58 211 -141 357 -286 500 -174 173 -373 269 -616 299 -102 12 -150 12 -250 0z
m251 -159 c39 0 27 -16 -19 -26 -34 -8 -50 -7 -80 6 -59 27 -56 33 12 26 35
-3 75 -6 87 -6z m-299 -106 c70 -30 131 -59 135 -62 6 -7 -26 -299 -33 -306
-7 -6 -294 -212 -305 -219 -6 -3 -62 15 -125 42 l-114 48 0 176 c0 201 -3 193
107 268 53 36 185 108 200 109 3 0 64 -25 135 -56z m679 -43 c33 -22 92 -74
133 -115 l75 -75 -18 -123 c-10 -68 -20 -132 -23 -144 -4 -17 -27 -28 -124
-58 -67 -21 -128 -38 -137 -38 -9 -1 -85 49 -169 111 -140 103 -152 115 -148
139 3 15 12 81 20 146 8 66 16 120 18 122 5 6 273 72 293 73 12 1 48 -17 80
-38z m-1286 -404 c0 -70 -1 -74 -40 -121 -45 -55 -50 -45 -24 45 17 57 54 149
60 149 2 0 4 -33 4 -73z m1654 -147 l8 -35 -26 30 c-25 30 -32 67 -19 102 6
14 10 9 19 -22 6 -22 15 -56 18 -75z m-723 -22 c76 -56 139 -105 139 -108 0
-3 -24 -77 -53 -165 l-54 -160 -179 -3 -179 -2 -48 152 c-27 84 -49 161 -50
171 -1 12 41 49 133 116 74 55 139 100 143 100 5 1 71 -45 148 -101z m-679
-92 l87 -38 20 -61 c11 -34 38 -119 60 -189 l41 -127 -64 -99 -64 -99 -138 31
c-77 17 -145 35 -152 39 -38 25 -138 292 -130 351 2 13 45 76 97 140 l94 115
31 -13 c17 -7 70 -30 118 -50z m1329 -82 c80 -104 81 -107 75 -150 -9 -66 -53
-191 -91 -260 l-34 -60 -125 -23 c-68 -13 -129 -22 -134 -20 -18 7 -163 183
-159 194 2 5 30 87 61 182 l57 171 72 22 c40 11 97 29 127 39 30 10 58 17 62
14 4 -2 44 -51 89 -109z m-522 -518 c45 -52 81 -97 81 -100 0 -3 -28 -55 -62
-115 l-61 -109 -66 -13 c-71 -15 -254 -18 -311 -6 -32 6 -42 18 -100 114 -36
60 -66 114 -68 120 -2 7 24 55 58 108 l62 95 193 0 193 0 81 -94z m283 -158
c-6 -7 -24 -21 -41 -31 l-31 -18 11 25 c7 15 22 27 38 29 14 2 28 5 30 6 2 0
-1 -5 -7 -11z m-1030 -19 c10 -5 25 -23 34 -40 14 -29 14 -30 -3 -20 -10 5
-40 26 -68 46 l-50 37 35 -7 c19 -4 43 -11 52 -16z"/>
<path d="M880 960 l0 -80 1360 0 1360 0 0 80 0 80 -1360 0 -1360 0 0 -80z"/>
<path d="M880 640 l0 -80 1360 0 1360 0 0 80 0 80 -1360 0 -1360 0 0 -80z"/>
</g>
</svg>
