<?xml version="1.0" standalone="no"?>
<!DOCTYPE svg PUBLIC "-//W3C//DTD SVG 20010904//EN"
 "http://www.w3.org/TR/2001/REC-SVG-20010904/DTD/svg10.dtd">
<svg version="1.0" xmlns="http://www.w3.org/2000/svg"
 width="512.000000pt" height="512.000000pt" viewBox="0 0 512.000000 512.000000"
 preserveAspectRatio="xMidYMid meet">
<metadata>
Created by potrace 1.16, written by Peter Selinger 2001-2019
</metadata>
<g transform="translate(0.000000,512.000000) scale(0.100000,-0.100000)"
fill="#000000" stroke="none">
<path d="M74 4470 c-11 -4 -33 -22 -47 -40 l-27 -32 0 -234 0 -234 44 0 c68 0
207 -27 314 -61 210 -67 390 -177 548 -334 201 -199 327 -431 385 -705 28
-134 31 -369 6 -506 -78 -428 -351 -793 -742 -993 -142 -73 -388 -141 -511
-141 l-44 0 0 -235 0 -235 34 -38 34 -37 1166 -3 1166 -2 0 523 0 523 -69 17
c-312 81 -570 356 -638 682 -18 89 -18 261 0 350 68 326 326 601 638 682 l69
17 0 523 0 523 -1152 -1 c-634 0 -1162 -4 -1174 -9z"/>
<path d="M2720 3955 l0 -525 23 0 c38 0 184 -56 264 -101 107 -60 262 -215
322 -322 161 -286 161 -609 0 -894 -52 -90 -193 -239 -284 -298 -77 -50 -195
-102 -267 -117 l-58 -12 0 -523 0 -523 1166 2 1166 3 34 37 34 38 0 235 0 235
-44 0 c-68 0 -207 27 -314 61 -207 66 -393 180 -548 334 -200 199 -326 430
-385 705 -32 149 -32 391 0 540 59 275 185 506 385 705 223 222 531 369 824
391 l82 7 0 234 0 233 -34 38 -34 37 -1166 3 -1166 2 0 -525z"/>
<path d="M0 2560 l0 -1061 53 7 c475 59 833 385 927 844 18 88 21 128 17 245
-10 292 -112 525 -317 725 -173 168 -376 263 -627 294 l-53 7 0 -1061z"/>
<path d="M5026 3609 c-422 -62 -758 -361 -874 -779 -24 -86 -27 -111 -27 -270
0 -159 3 -184 27 -270 34 -121 74 -211 141 -314 71 -108 142 -183 246 -261
157 -119 316 -181 534 -210 l47 -6 0 1060 c0 1004 -1 1061 -17 1060 -10 -1
-45 -5 -77 -10z"/>
<path d="M2302 3070 c-98 -49 -203 -154 -251 -251 -79 -161 -79 -351 -1 -515
58 -120 207 -252 328 -289 l22 -6 0 550 c0 313 -4 551 -9 551 -5 0 -45 -18
-89 -40z"/>
<path d="M2720 2560 c0 -406 3 -550 11 -550 7 0 46 16 87 36 137 66 257 212
297 360 21 77 21 231 0 308 -40 148 -160 294 -297 360 -41 20 -80 36 -87 36
-8 0 -11 -144 -11 -550z"/>
</g>
</svg>
